# xmcd
#
# Track frame offsets: 
#        150
#        14820
#        30766
#        47394
#        64744
#        81728
#        99776
#        117213
#        133773
#        148243
#        166163
#        188747
#        210460
#        226021
#        242595
#
# Disc length: 3477 seconds
#
# Revision: 1
# Processed by: cddbd v1.5.2PL0 Copyright (c) Steve Scherf et al.
# Submitted via: ExactAudioCopy v0.99pb4
#
DISCID=bf0d930f
DTITLE=Хардай - Однажды
DYEAR=2007
DGENRE=Chanson
TTITLE0=Ты одна
TTITLE1=Ищу тебя
TTITLE2=Погоди, неспеши
TTITLE3=В южном городе
TTITLE4=Друзья
TTITLE5=Ромашка
TTITLE6=Уходя-уходи
TTITLE7=Ты возьми меня с собой (Хардай and Фатима)
TTITLE8=Мальчик из Нальчика
TTITLE9=Если нет тебя
TTITLE10=Любимая моя
TTITLE11=Небо
TTITLE12=Потеря
TTITLE13=Махачкала
TTITLE14=Я школяр
EXTD=
EXTT0=
EXTT1=
EXTT2=
EXTT3=
EXTT4=
EXTT5=
EXTT6=
EXTT7=
EXTT8=
EXTT9=
EXTT10=
EXTT11=
EXTT12=
EXTT13=
EXTT14=
PLAYORDER=
